<svg width="28" height="28" viewBox="0 0 28 28" fill="none" xmlns="http://www.w3.org/2000/svg">
<g clip-path="url(#clip0_82_566)">
<path opacity="0.94" fill-rule="evenodd" clip-rule="evenodd" d="M27.4642 24.0008C27.4642 24.3712 27.4642 24.7417 27.4642 25.1122C27.1941 25.9516 26.6214 26.472 25.7461 26.6734C17.7279 26.7087 9.70967 26.7087 1.69151 26.6734C0.810565 26.4489 0.237837 25.9108 -0.0266724 25.0593C-0.0266724 18.1263 -0.0266724 11.1933 -0.0266724 4.26036C0.282555 3.26926 0.962668 2.71357 2.01367 2.59327C2.65774 2.56682 3.30206 2.558 3.94662 2.56681C3.93769 2.14306 3.94664 1.71967 3.97347 1.29665C4.07658 0.630603 4.47033 0.313063 5.15472 0.344028C5.7193 0.319235 6.09516 0.566211 6.28228 1.08496C6.30912 1.57859 6.31804 2.07254 6.30912 2.56681C7.75884 2.56681 9.20856 2.56681 10.6583 2.56681C10.6494 2.07254 10.6583 1.57859 10.6851 1.08496C10.8722 0.566211 11.2481 0.319235 11.8127 0.344028C12.5221 0.320078 12.9159 0.65526 12.9939 1.34957C13.0208 1.75493 13.0297 2.16068 13.0208 2.56681C14.4526 2.56681 15.8844 2.56681 17.3162 2.56681C17.3073 2.07254 17.3162 1.57859 17.3431 1.08496C17.5357 0.55162 17.9205 0.304644 18.4975 0.344028C19.1438 0.319622 19.5285 0.619521 19.6519 1.24373C19.6787 1.6844 19.6876 2.12543 19.6787 2.56681C20.5738 2.55799 21.4687 2.56682 22.3634 2.59327C23.3175 2.68826 23.9708 3.1734 24.3232 4.04867C25.3598 10.7081 26.4069 17.3588 27.4642 24.0008ZM4.9131 1.1908C5.10141 1.164 5.27143 1.19928 5.42319 1.29665C5.459 2.54917 5.459 3.80169 5.42319 5.05421C5.25818 5.11331 5.08816 5.12214 4.9131 5.08067C4.8795 5.04096 4.85265 4.99685 4.83256 4.94836C4.79676 3.74876 4.79676 2.54917 4.83256 1.34957C4.86012 1.29524 4.88697 1.24232 4.9131 1.1908ZM11.6247 1.1908C11.769 1.18212 11.9122 1.19094 12.0543 1.21726C12.0914 1.27375 12.1182 1.3355 12.1348 1.4025C12.1706 2.56681 12.1706 3.73113 12.1348 4.89544C12.1086 5.07632 12.0012 5.14688 11.8127 5.10713C11.718 5.10478 11.6285 5.08714 11.5442 5.05421C11.5352 4.41913 11.5263 3.78405 11.5174 3.14897C11.5184 2.48441 11.5542 1.83168 11.6247 1.1908ZM18.2827 1.1908C18.427 1.18212 18.5702 1.19094 18.7122 1.21726C18.7459 1.25698 18.7727 1.30108 18.7928 1.34957C18.8286 2.54917 18.8286 3.74876 18.7928 4.94836C18.7422 5.07826 18.6437 5.13118 18.4975 5.10713C18.3797 5.11633 18.2813 5.08105 18.2022 5.00129C18.1663 3.76641 18.1663 2.53153 18.2022 1.29665C18.2407 1.26785 18.2675 1.23256 18.2827 1.1908ZM2.06736 3.41358C2.69378 3.41358 3.3202 3.41358 3.94662 3.41358C3.95555 3.74923 3.9466 4.08441 3.91978 4.41913C3.43201 4.91341 3.28883 5.49559 3.49023 6.1656C3.87275 7.07324 4.56181 7.45254 5.55742 7.30345C6.50591 7.00264 6.94442 6.35872 6.8729 5.37175C6.82077 4.96905 6.64181 4.63387 6.33597 4.36621C6.30918 4.04915 6.30021 3.73161 6.30912 3.41358C7.75884 3.41358 9.20856 3.41358 10.6583 3.41358C10.6672 3.73161 10.6582 4.04915 10.6314 4.36621C9.87274 5.22609 9.88171 6.08166 10.6583 6.93299C11.3211 7.3976 12.0191 7.45053 12.7523 7.09176C13.6144 6.41757 13.7844 5.59726 13.2624 4.63082C13.1908 4.56026 13.1192 4.48969 13.0476 4.41913C13.0208 4.08441 13.0119 3.74923 13.0208 3.41358C14.4526 3.41358 15.8844 3.41358 17.3162 3.41358C17.3251 3.73161 17.3162 4.04915 17.2894 4.36621C16.6739 5.04268 16.5845 5.7836 17.0209 6.58899C17.7526 7.41777 18.6028 7.55008 19.5713 6.98591C20.2153 6.40418 20.3853 5.70739 20.0814 4.89544C19.977 4.70439 19.8518 4.52798 19.7056 4.36621C19.6788 4.04915 19.6698 3.73161 19.6787 3.41358C20.5559 3.40477 21.4329 3.41359 22.3097 3.44005C23.075 3.54175 23.4956 3.97396 23.5715 4.73667C23.5983 6.07727 23.6073 7.41798 23.5983 8.75885C16.0097 8.75885 8.42104 8.75885 0.832419 8.75885C0.823473 7.31219 0.832419 5.86558 0.859265 4.41913C1.06094 3.8403 1.46364 3.50512 2.06736 3.41358ZM4.26878 5.68929C4.5221 5.90638 4.81741 5.99455 5.15472 5.95391C5.48579 6.00223 5.77214 5.914 6.01381 5.68929C5.95754 6.18555 5.67114 6.45017 5.15472 6.48314C4.6473 6.45054 4.35199 6.18592 4.26878 5.68929ZM10.9267 5.68929C11.1801 5.90638 11.4754 5.99455 11.8127 5.95391C12.1437 6.00223 12.4301 5.914 12.6718 5.68929C12.614 6.18709 12.3276 6.4517 11.8127 6.48314C11.3043 6.44959 11.009 6.18497 10.9267 5.68929ZM17.6384 5.74221C17.7608 5.80255 17.8861 5.86431 18.0142 5.92745C18.3185 5.96275 18.6227 5.96275 18.927 5.92745C19.0742 5.87082 19.2085 5.79143 19.3297 5.68929C19.2372 6.30807 18.8703 6.56385 18.229 6.45668C17.8724 6.34358 17.6755 6.10543 17.6384 5.74221ZM0.832419 9.60562C8.42104 9.60562 16.0097 9.60562 23.5983 9.60562C23.5983 9.81732 23.5983 10.029 23.5983 10.2407C19.9651 10.2319 16.3318 10.2407 12.6986 10.2672C12.2738 10.4553 12.2202 10.7199 12.5375 11.061C16.2244 11.0875 19.9114 11.0963 23.5983 11.0875C23.5894 13.2751 23.5983 15.4625 23.6252 17.65C23.9712 17.9628 24.2397 17.9099 24.4306 17.4912C24.4485 15.1979 24.4664 12.9045 24.4843 10.6112C25.1773 15.0928 25.8753 19.5736 26.5783 24.0537C26.7423 25.3476 26.1606 25.9474 24.8333 25.8531C24.5648 25.8355 24.2963 25.8178 24.0279 25.8002C24.2743 25.4507 24.4086 25.0626 24.4306 24.6359C24.4664 22.8365 24.4664 21.0371 24.4306 19.2377C24.237 18.8185 23.9685 18.7655 23.6252 19.0789C23.6231 21.0212 23.5873 22.9617 23.5178 24.9005C23.3836 25.3856 23.0704 25.6943 22.5782 25.8266C15.6696 25.8619 8.76113 25.8619 1.85259 25.8266C1.36588 25.6822 1.03477 25.3734 0.859265 24.9005C0.832419 20.2962 0.823468 15.6919 0.832419 11.0875C4.25093 11.0963 7.66939 11.0875 11.0878 11.061C11.3261 10.8722 11.3619 10.6517 11.1952 10.3995C11.1194 10.3304 11.0299 10.2862 10.9267 10.2672C7.562 10.2407 4.19724 10.2319 0.832419 10.2407C0.832419 10.029 0.832419 9.81732 0.832419 9.60562Z" fill="#4BB05B"/>
<path opacity="0.909" fill-rule="evenodd" clip-rule="evenodd" d="M7.6513 13.0985C8.20643 13.0897 8.76124 13.0985 9.31578 13.125C9.56508 13.2346 9.64562 13.4199 9.5574 13.6807C9.51268 13.7953 9.43214 13.8747 9.31578 13.9188C8.77885 13.9541 8.24192 13.9541 7.70499 13.9188C7.29665 13.6698 7.27877 13.3964 7.6513 13.0985Z" fill="#4BB05B"/>
<path opacity="0.909" fill-rule="evenodd" clip-rule="evenodd" d="M11.3561 13.0985C11.9112 13.0897 12.466 13.0985 13.0206 13.125C13.3196 13.3109 13.3643 13.5491 13.1548 13.8394C13.0975 13.876 13.0349 13.9025 12.9669 13.9188C12.4478 13.9541 11.9288 13.9541 11.4098 13.9188C10.9999 13.6702 10.9821 13.3967 11.3561 13.0985Z" fill="#4BB05B"/>
<path opacity="0.908" fill-rule="evenodd" clip-rule="evenodd" d="M15.0609 13.0985C15.616 13.0897 16.1709 13.0985 16.7254 13.125C17.0899 13.4128 17.072 13.6774 16.6717 13.9188C16.1348 13.9541 15.5978 13.9541 15.0609 13.9188C14.7906 13.7594 14.7279 13.5388 14.873 13.2573C14.9345 13.1972 14.9971 13.1442 15.0609 13.0985Z" fill="#4BB05B"/>
<path opacity="0.911" fill-rule="evenodd" clip-rule="evenodd" d="M18.7121 13.0985C19.2851 13.0897 19.8578 13.0985 20.4302 13.125C20.633 13.2814 20.6956 13.4842 20.6182 13.7336C20.553 13.8156 20.4724 13.8773 20.3765 13.9188C19.8396 13.9541 19.3027 13.9541 18.7657 13.9188C18.5121 13.79 18.4316 13.5871 18.5241 13.3102C18.598 13.2465 18.6606 13.1759 18.7121 13.0985Z" fill="#4BB05B"/>
<path opacity="0.916" fill-rule="evenodd" clip-rule="evenodd" d="M4.10752 16.274C4.63087 16.2517 5.14991 16.2782 5.66462 16.3534C5.86393 16.4863 5.92653 16.6716 5.85255 16.909C5.8257 17.0061 5.76304 17.0678 5.66462 17.0943C5.09189 17.1296 4.51917 17.1296 3.94644 17.0943C3.74715 16.9613 3.68451 16.7761 3.75851 16.5386C3.84244 16.4051 3.95878 16.3168 4.10752 16.274Z" fill="#4BB05B"/>
<path opacity="0.912" fill-rule="evenodd" clip-rule="evenodd" d="M7.81236 16.274C8.33571 16.2517 8.85476 16.2782 9.36946 16.3534C9.56877 16.4863 9.63138 16.6716 9.55739 16.909C9.51266 16.9884 9.45 17.0502 9.36946 17.0943C8.79672 17.1296 8.22403 17.1296 7.65128 17.0943C7.42453 16.9358 7.36193 16.7329 7.46335 16.4857C7.55957 16.373 7.67587 16.3025 7.81236 16.274Z" fill="#4BB05B"/>
<path opacity="0.914" fill-rule="evenodd" clip-rule="evenodd" d="M11.5172 16.274C12.0405 16.2517 12.5596 16.2782 13.0743 16.3534C13.3606 16.6003 13.3606 16.8473 13.0743 17.0943C12.4836 17.1296 11.893 17.1296 11.3024 17.0943C11.1011 16.923 11.0564 16.7201 11.1682 16.4857C11.2644 16.373 11.3807 16.3025 11.5172 16.274Z" fill="#4BB05B"/>
<path opacity="0.911" fill-rule="evenodd" clip-rule="evenodd" d="M15.1683 16.2739C15.7088 16.253 16.2457 16.2795 16.7791 16.3533C17.0655 16.6003 17.0655 16.8473 16.7791 17.0943C16.1885 17.1296 15.5979 17.1296 15.0073 17.0943C14.6837 16.74 14.7374 16.4666 15.1683 16.2739Z" fill="#4BB05B"/>
<path opacity="0.915" fill-rule="evenodd" clip-rule="evenodd" d="M18.8731 16.274C19.3965 16.2517 19.9155 16.2782 20.4302 16.3534C20.6296 16.4863 20.6922 16.6716 20.6182 16.909C20.5913 17.0061 20.5287 17.0678 20.4302 17.0943C19.8575 17.1296 19.2848 17.1296 18.7121 17.0943C18.5128 16.9613 18.4501 16.7761 18.5241 16.5386C18.6081 16.4051 18.7244 16.3168 18.8731 16.274Z" fill="#4BB05B"/>
<path opacity="0.912" fill-rule="evenodd" clip-rule="evenodd" d="M4.00017 19.5023C4.55529 19.4935 5.11012 19.5023 5.66466 19.5287C5.86746 19.6851 5.93007 19.888 5.85259 20.1373C5.7874 20.2193 5.70686 20.281 5.61097 20.3226C5.07404 20.3579 4.5371 20.3579 4.00017 20.3226C3.74654 20.1937 3.666 19.9908 3.75855 19.7139C3.83355 19.6309 3.91409 19.5603 4.00017 19.5023Z" fill="#4BB05B"/>
<path opacity="0.909" fill-rule="evenodd" clip-rule="evenodd" d="M7.6513 19.5023C8.20643 19.4935 8.76124 19.5023 9.31578 19.5287C9.56508 19.6384 9.64562 19.8236 9.5574 20.0844C9.51268 20.1991 9.43214 20.2785 9.31578 20.3226C8.77885 20.3579 8.24192 20.3579 7.70499 20.3226C7.29665 20.0735 7.27877 19.8001 7.6513 19.5023Z" fill="#4BB05B"/>
<path opacity="0.906" fill-rule="evenodd" clip-rule="evenodd" d="M11.3561 19.5023C11.9112 19.4935 12.466 19.5023 13.0206 19.5287C13.2927 19.6866 13.3554 19.9071 13.2085 20.1903C13.16 20.2538 13.0974 20.298 13.0206 20.3226C12.4837 20.3579 11.9467 20.3579 11.4098 20.3226C10.9999 20.0739 10.9821 19.8005 11.3561 19.5023Z" fill="#4BB05B"/>
<path opacity="0.909" fill-rule="evenodd" clip-rule="evenodd" d="M15.0609 19.5023C15.616 19.4935 16.1709 19.5023 16.7254 19.5287C17.0881 19.8189 17.0702 20.0836 16.6717 20.3226C16.1348 20.3579 15.5978 20.3579 15.0609 20.3226C14.7906 20.1631 14.7279 19.9426 14.873 19.661C14.9345 19.6009 14.9971 19.548 15.0609 19.5023Z" fill="#4BB05B"/>
<path opacity="0.914" fill-rule="evenodd" clip-rule="evenodd" d="M18.7657 19.5023C19.303 19.4935 19.8399 19.5023 20.3765 19.5287C20.6302 19.6576 20.7107 19.8605 20.6182 20.1373C20.553 20.2193 20.4724 20.281 20.3765 20.3226C19.8396 20.3579 19.3027 20.3579 18.7657 20.3226C18.5121 20.1937 18.4316 19.9908 18.5241 19.7139C18.5991 19.6309 18.6797 19.5603 18.7657 19.5023Z" fill="#4BB05B"/>
<path opacity="0.916" fill-rule="evenodd" clip-rule="evenodd" d="M4.10752 22.6777C4.63087 22.6554 5.14991 22.6819 5.66462 22.757C5.86393 22.89 5.92653 23.0753 5.85255 23.3127C5.8257 23.4097 5.76304 23.4715 5.66462 23.498C5.09189 23.5333 4.51917 23.5333 3.94644 23.498C3.74715 23.365 3.68451 23.1797 3.75851 22.9423C3.84244 22.8087 3.95878 22.7205 4.10752 22.6777Z" fill="#4BB05B"/>
<path opacity="0.914" fill-rule="evenodd" clip-rule="evenodd" d="M7.81236 22.6777C8.33571 22.6554 8.85476 22.6819 9.36946 22.757C9.65581 23.004 9.65581 23.251 9.36946 23.498C8.79672 23.5333 8.22403 23.5333 7.65128 23.498C7.42453 23.3395 7.36193 23.1366 7.46335 22.8893C7.55957 22.7767 7.67587 22.7062 7.81236 22.6777Z" fill="#4BB05B"/>
<path opacity="0.915" fill-rule="evenodd" clip-rule="evenodd" d="M11.5172 22.6776C12.0398 22.657 12.5588 22.6834 13.0743 22.757C13.3606 23.004 13.3606 23.251 13.0743 23.498C12.4836 23.5333 11.893 23.5333 11.3024 23.498C11.1011 23.3266 11.0564 23.1238 11.1682 22.8893C11.2644 22.7767 11.3807 22.7062 11.5172 22.6776Z" fill="#4BB05B"/>
<path opacity="0.909" fill-rule="evenodd" clip-rule="evenodd" d="M15.1683 22.6777C15.7088 22.6568 16.2458 22.6833 16.7791 22.7571C17.0655 23.0041 17.0655 23.251 16.7791 23.498C16.1885 23.5333 15.5979 23.5333 15.0073 23.498C14.6859 23.1481 14.7396 22.8746 15.1683 22.6777Z" fill="#4BB05B"/>
</g>
<defs>
<clipPath id="clip0_82_566">
<rect width="27.4909" height="27.0968" fill="white"/>
</clipPath>
</defs>
</svg>
