<svg width="166" height="167" viewBox="0 0 166 167" fill="none" xmlns="http://www.w3.org/2000/svg">
<path d="M12.6104 154.539H14.4795L14.4795 165.26H12.6104L12.6104 154.539ZM8.04492 158.901H19.4316V160.888H8.04492L8.04492 158.901Z" fill="#72CC00"/>
<path d="M47.4537 154.539H49.3229L49.3229 165.26H47.4537L47.4537 154.539ZM42.8883 158.901H54.275V160.888H42.8883V158.901Z" fill="#E0E0E0"/>
<path d="M82.2971 154.539H84.1663V165.26H82.2971V154.539ZM77.7317 158.901H89.1184V160.888H77.7317V158.901Z" fill="#E0E0E0"/>
<path d="M12.6104 116.52H14.4795L14.4795 127.24H12.6104L12.6104 116.52ZM8.04492 120.881H19.4316V122.868H8.04492L8.04492 120.881Z" fill="#E0E0E0"/>
<path d="M47.4537 116.52H49.3229L49.3229 127.24H47.4537L47.4537 116.52ZM42.8883 120.881H54.275V122.868H42.8883V120.881Z" fill="#E0E0E0"/>
<path d="M82.2971 116.52H84.1663V127.24H82.2971V116.52ZM77.7317 120.881H89.1184V122.868H77.7317V120.881Z" fill="#E0E0E0"/>
<path d="M117.141 116.52H119.01V127.24H117.141V116.52ZM112.575 120.881H123.962V122.868H112.575V120.881Z" fill="#F2F2F2"/>
<path d="M12.6104 78.5002H14.4795L14.4795 89.2209H12.6104L12.6104 78.5002ZM8.04492 82.8615H19.4316V84.8488H8.04492L8.04492 82.8615Z" fill="#E0E0E0"/>
<path d="M47.4537 78.5002H49.3229L49.3229 89.2209H47.4537L47.4537 78.5002ZM42.8883 82.8615H54.275V84.8488H42.8883V82.8615Z" fill="#E0E0E0"/>
<path d="M82.2971 78.5002H84.1663V89.2209H82.2971V78.5002ZM77.7317 82.8615H89.1184V84.8488H77.7317V82.8615Z" fill="#72CC00"/>
<path d="M117.141 78.5002H119.01V89.2209H117.141V78.5002ZM112.575 82.8615H123.962V84.8488H112.575V82.8615Z" fill="#E0E0E0"/>
<path d="M151.984 82.8615V78.5002H153.864V82.8615H158.805V84.8596H153.864V89.2209H151.984V84.8596H147.418V82.8615H151.984Z" fill="#F2F2F2"/>
<path d="M12.6104 40.4806H14.4795L14.4795 51.2013H12.6104L12.6104 40.4806ZM8.04492 44.8419H19.4316V46.8292H8.04492L8.04492 44.8419Z" fill="#E0E0E0"/>
<path d="M47.4537 40.4806H49.3229L49.3229 51.2013H47.4537L47.4537 40.4806ZM42.8883 44.8419H54.275V46.8292H42.8883V44.8419Z" fill="#E0E0E0"/>
<path d="M82.2971 40.4806H84.1663V51.2013H82.2971V40.4806ZM77.7317 44.8419H89.1184V46.8292H77.7317V44.8419Z" fill="#E0E0E0"/>
<path d="M117.141 40.4806H119.01V51.2013H117.141V40.4806ZM112.575 44.8419H123.962V46.8292H112.575V44.8419Z" fill="#E0E0E0"/>
<path d="M151.984 40.4806H153.853V51.2013H151.984V40.4806ZM147.418 44.8419H158.805V46.8292H147.418V44.8419Z" fill="#E0E0E0"/>
<path d="M12.6104 2.461H14.4795L14.4795 13.1817H12.6104L12.6104 2.461ZM8.04492 6.82233L19.4316 6.82233V8.80963H8.04492L8.04492 6.82233Z" fill="#72CC00"/>
<path d="M47.4537 2.461H49.3229L49.3229 13.1817H47.4537L47.4537 2.461ZM42.8883 6.82233L54.275 6.82233V8.80963H42.8883V6.82233Z" fill="#E0E0E0"/>
<path d="M82.2971 2.461H84.1663V13.1817H82.2971V2.461ZM77.7317 6.82233L89.1184 6.82233V8.80963H77.7317V6.82233Z" fill="#E0E0E0"/>
<path d="M117.141 2.461H119.01V13.1817H117.141V2.461ZM112.575 6.82233L123.962 6.82233V8.80963H112.575V6.82233Z" fill="#E0E0E0"/>
<path d="M151.984 2.461H153.853V13.1817H151.984V2.461ZM147.418 6.82233L158.805 6.82233V8.80963H147.418V6.82233Z" fill="#72CC00"/>
</svg>
