<svg width="228" height="36" viewBox="0 0 228 36" fill="none" xmlns="http://www.w3.org/2000/svg">
<g clip-path="url(#clip0_23_1744)">
<path opacity="0.94" fill-rule="evenodd" clip-rule="evenodd" d="M34.9658 31.8867C34.9658 32.3789 34.9658 32.8711 34.9658 33.3633C34.6219 34.4785 33.8927 35.17 32.7783 35.4375C22.57 35.4844 12.3616 35.4844 2.15332 35.4375C1.03175 35.1393 0.30258 34.4244 -0.0341797 33.293C-0.0341797 24.0821 -0.0341797 14.8711 -0.0341797 5.66018C0.359512 4.34344 1.2254 3.60516 2.56348 3.44534C3.38347 3.41019 4.20379 3.39848 5.02441 3.41018C5.01304 2.8472 5.02443 2.2847 5.05859 1.72268C5.18987 0.837793 5.69117 0.415918 6.5625 0.457058C7.2813 0.424118 7.75981 0.752244 7.99805 1.44143C8.03223 2.09727 8.04357 2.75351 8.03223 3.41018C9.87793 3.41018 11.7236 3.41018 13.5693 3.41018C13.558 2.75351 13.5693 2.09727 13.6035 1.44143C13.8417 0.752244 14.3203 0.424118 15.0391 0.457058C15.9423 0.425238 16.4436 0.870551 16.543 1.793C16.5771 2.33155 16.5885 2.87061 16.5771 3.41018C18.4001 3.41018 20.223 3.41018 22.0459 3.41018C22.0346 2.75351 22.0459 2.09727 22.0801 1.44143C22.3254 0.732858 22.8153 0.404732 23.5498 0.457058C24.3726 0.424632 24.8625 0.823069 25.0195 1.65237C25.0537 2.23784 25.0651 2.82378 25.0537 3.41018C26.1933 3.39847 27.3326 3.41019 28.4717 3.44534C29.6864 3.57154 30.5182 4.21608 30.9668 5.37893C32.2866 14.2265 33.6196 23.0625 34.9658 31.8867ZM6.25488 1.58206C6.49463 1.54644 6.71109 1.59332 6.9043 1.72268C6.94989 3.38675 6.94989 5.0508 6.9043 6.71487C6.69422 6.79339 6.47775 6.80512 6.25488 6.75003C6.2121 6.69726 6.17792 6.63867 6.15234 6.57424C6.10677 4.98049 6.10677 3.38675 6.15234 1.793C6.18743 1.72081 6.22161 1.6505 6.25488 1.58206ZM14.7998 1.58206C14.9835 1.57052 15.1658 1.58224 15.3467 1.61721C15.3939 1.69227 15.4281 1.7743 15.4492 1.86331C15.4948 3.41018 15.4948 4.95706 15.4492 6.50393C15.4158 6.74424 15.2791 6.83799 15.0391 6.78518C14.9185 6.78205 14.8045 6.75862 14.6973 6.71487C14.6858 5.87112 14.6745 5.02737 14.6631 4.18362C14.6645 3.30071 14.71 2.43351 14.7998 1.58206ZM23.2764 1.58206C23.46 1.57052 23.6424 1.58224 23.8232 1.61721C23.866 1.66998 23.9002 1.72857 23.9258 1.793C23.9714 3.38675 23.9714 4.98049 23.9258 6.57424C23.8613 6.74682 23.736 6.81713 23.5498 6.78518C23.3999 6.7974 23.2745 6.75053 23.1738 6.64456C23.1282 5.00393 23.1282 3.36331 23.1738 1.72268C23.2228 1.68442 23.257 1.63754 23.2764 1.58206ZM2.63184 4.53518C3.42936 4.53518 4.22689 4.53518 5.02441 4.53518C5.03578 4.98111 5.02438 5.42642 4.99023 5.87112C4.36924 6.5278 4.18694 7.30128 4.44336 8.19143C4.93036 9.39729 5.80763 9.90122 7.0752 9.70315C8.28276 9.3035 8.84105 8.448 8.75 7.13674C8.68362 6.60173 8.45578 6.15642 8.06641 5.80081C8.03229 5.37958 8.02088 4.9577 8.03223 4.53518C9.87793 4.53518 11.7236 4.53518 13.5693 4.53518C13.5807 4.9577 13.5693 5.37958 13.5352 5.80081C12.5692 6.94323 12.5807 8.07992 13.5693 9.21096C14.4132 9.82824 15.3019 9.89855 16.2354 9.4219C17.3329 8.52619 17.5494 7.43635 16.8848 6.15237C16.7936 6.05862 16.7025 5.96487 16.6113 5.87112C16.5771 5.42642 16.5658 4.98111 16.5771 4.53518C18.4001 4.53518 20.223 4.53518 22.0459 4.53518C22.0572 4.9577 22.0458 5.37958 22.0117 5.80081C21.2282 6.69955 21.1143 7.68392 21.6699 8.75393C22.6015 9.85503 23.6839 10.0308 24.917 9.28128C25.7369 8.5084 25.9533 7.58267 25.5664 6.50393C25.4335 6.25011 25.274 6.01574 25.0879 5.80081C25.0538 5.37958 25.0424 4.9577 25.0537 4.53518C26.1705 4.52347 27.287 4.53519 28.4033 4.57034C29.3777 4.70546 29.9132 5.27968 30.0098 6.29299C30.0439 8.07408 30.0554 9.85531 30.0439 11.6367C20.3825 11.6367 10.721 11.6367 1.05957 11.6367C1.04818 9.71475 1.05957 7.79283 1.09375 5.87112C1.35051 5.1021 1.8632 4.6568 2.63184 4.53518ZM5.43457 7.55862C5.75708 7.84704 6.13305 7.96418 6.5625 7.91018C6.984 7.97438 7.34856 7.85717 7.65625 7.55862C7.58461 8.21794 7.21998 8.5695 6.5625 8.61331C5.91648 8.56999 5.54051 8.21843 5.43457 7.55862ZM13.9111 7.55862C14.2337 7.84704 14.6096 7.96418 15.0391 7.91018C15.4606 7.97438 15.8251 7.85717 16.1328 7.55862C16.0593 8.21998 15.6947 8.57154 15.0391 8.61331C14.3918 8.56873 14.0159 8.21717 13.9111 7.55862ZM22.4561 7.62893C22.6119 7.70909 22.7715 7.79114 22.9346 7.87503C23.322 7.92192 23.7093 7.92192 24.0967 7.87503C24.2841 7.79979 24.455 7.69432 24.6094 7.55862C24.4915 8.38071 24.0244 8.72053 23.208 8.57815C22.754 8.42789 22.5033 8.11149 22.4561 7.62893ZM1.05957 12.7617C10.721 12.7617 20.3825 12.7617 30.0439 12.7617C30.0439 13.043 30.0439 13.3242 30.0439 13.6055C25.4183 13.5938 20.7926 13.6055 16.167 13.6407C15.6262 13.8906 15.5578 14.2422 15.9619 14.6953C20.6559 14.7305 25.3499 14.7422 30.0439 14.7305C30.0325 17.6369 30.0439 20.5431 30.0781 23.4492C30.5187 23.8649 30.8605 23.7945 31.1035 23.2383C31.1263 20.1915 31.1491 17.1445 31.1719 14.0977C32.0542 20.0518 32.9429 26.005 33.8379 31.9571C34.0467 33.6761 33.3061 34.473 31.6162 34.3477C31.2744 34.3243 30.9326 34.3008 30.5908 34.2774C30.9046 33.8131 31.0755 33.2974 31.1035 32.7305C31.1491 30.3399 31.1491 27.9492 31.1035 25.5586C30.8571 25.0017 30.5153 24.9314 30.0781 25.3477C30.0755 27.9282 30.0299 30.5063 29.9414 33.0821C29.7705 33.7266 29.3718 34.1367 28.7451 34.3125C19.9495 34.3594 11.154 34.3594 2.3584 34.3125C1.73875 34.1206 1.3172 33.7104 1.09375 33.0821C1.05957 26.9649 1.04817 20.8478 1.05957 14.7305C5.41184 14.7422 9.76404 14.7305 14.1162 14.6953C14.4196 14.4445 14.4652 14.1515 14.2529 13.8164C14.1564 13.7246 14.0425 13.666 13.9111 13.6407C9.62732 13.6055 5.34349 13.5938 1.05957 13.6055C1.05957 13.3242 1.05957 13.043 1.05957 12.7617Z" fill="#8FEA1B"/>
<path opacity="0.909" fill-rule="evenodd" clip-rule="evenodd" d="M9.7412 17.4023C10.448 17.3907 11.1543 17.4023 11.8603 17.4375C12.1777 17.5832 12.2803 17.8293 12.168 18.1758C12.111 18.3281 12.0085 18.4336 11.8603 18.4922C11.1768 18.5391 10.4932 18.5391 9.80956 18.4922C9.28969 18.1613 9.26693 17.798 9.7412 17.4023Z" fill="#8FEA1B"/>
<path opacity="0.909" fill-rule="evenodd" clip-rule="evenodd" d="M14.458 17.4023C15.1648 17.3907 15.8712 17.4023 16.5772 17.4375C16.9579 17.6846 17.0148 18.001 16.7481 18.3867C16.6751 18.4353 16.5954 18.4704 16.5088 18.4922C15.848 18.5391 15.1872 18.5391 14.5264 18.4922C14.0046 18.1618 13.9818 17.7985 14.458 17.4023Z" fill="#8FEA1B"/>
<path opacity="0.908" fill-rule="evenodd" clip-rule="evenodd" d="M19.1748 17.4023C19.8816 17.3907 20.5879 17.4023 21.294 17.4375C21.758 17.8199 21.7352 18.1715 21.2256 18.4922C20.542 18.5391 19.8584 18.5391 19.1748 18.4922C18.8306 18.2803 18.7508 17.9873 18.9356 17.6133C19.0138 17.5334 19.0936 17.4631 19.1748 17.4023Z" fill="#8FEA1B"/>
<path opacity="0.911" fill-rule="evenodd" clip-rule="evenodd" d="M23.8233 17.4024C24.5528 17.3906 25.282 17.4024 26.0108 17.4375C26.269 17.6453 26.3487 17.9148 26.25 18.2461C26.167 18.355 26.0645 18.437 25.9424 18.4922C25.2588 18.5391 24.5752 18.5391 23.8916 18.4922C23.5687 18.321 23.4662 18.0514 23.584 17.6836C23.6781 17.5989 23.7578 17.5052 23.8233 17.4024Z" fill="#8FEA1B"/>
<path opacity="0.916" fill-rule="evenodd" clip-rule="evenodd" d="M5.22949 21.6211C5.89579 21.5915 6.5566 21.6267 7.21191 21.7265C7.46566 21.9032 7.54537 22.1493 7.45117 22.4648C7.41699 22.5937 7.33721 22.6758 7.21191 22.7109C6.48274 22.7578 5.75358 22.7578 5.02441 22.7109C4.7707 22.5342 4.69094 22.2881 4.78515 21.9726C4.89201 21.7952 5.04012 21.678 5.22949 21.6211Z" fill="#8FEA1B"/>
<path opacity="0.912" fill-rule="evenodd" clip-rule="evenodd" d="M9.94629 21.6211C10.6126 21.5915 11.2734 21.6267 11.9287 21.7265C12.1825 21.9032 12.2622 22.1493 12.168 22.4648C12.111 22.5703 12.0313 22.6523 11.9287 22.7109C11.1995 22.7578 10.4704 22.7578 9.74122 22.7109C9.45253 22.5003 9.37283 22.2308 9.50196 21.9023C9.62446 21.7527 9.77252 21.659 9.94629 21.6211Z" fill="#8FEA1B"/>
<path opacity="0.914" fill-rule="evenodd" clip-rule="evenodd" d="M14.6631 21.6211C15.3294 21.5915 15.9902 21.6267 16.6455 21.7265C17.0101 22.0547 17.0101 22.3828 16.6455 22.7109C15.8936 22.7578 15.1416 22.7578 14.3897 22.7109C14.1334 22.4833 14.0764 22.2138 14.2188 21.9023C14.3413 21.7527 14.4893 21.659 14.6631 21.6211Z" fill="#8FEA1B"/>
<path opacity="0.911" fill-rule="evenodd" clip-rule="evenodd" d="M19.3115 21.6211C19.9997 21.5933 20.6832 21.6285 21.3623 21.7265C21.7269 22.0547 21.7269 22.3828 21.3623 22.7109C20.6104 22.7578 19.8584 22.7578 19.1065 22.7109C18.6945 22.2403 18.7629 21.877 19.3115 21.6211Z" fill="#8FEA1B"/>
<path opacity="0.915" fill-rule="evenodd" clip-rule="evenodd" d="M24.0283 21.6211C24.6946 21.5915 25.3554 21.6267 26.0107 21.7265C26.2645 21.9032 26.3442 22.1493 26.25 22.4648C26.2158 22.5937 26.136 22.6758 26.0107 22.7109C25.2815 22.7578 24.5524 22.7578 23.8232 22.7109C23.5695 22.5342 23.4898 22.2881 23.584 21.9726C23.6908 21.7952 23.839 21.678 24.0283 21.6211Z" fill="#8FEA1B"/>
<path opacity="0.912" fill-rule="evenodd" clip-rule="evenodd" d="M5.09279 25.9101C5.79954 25.8985 6.50591 25.9101 7.21193 25.9453C7.47012 26.1531 7.54983 26.4226 7.45119 26.7539C7.3682 26.8628 7.26566 26.9448 7.14357 27C6.45998 27.0469 5.77638 27.0469 5.09279 27C4.76987 26.8288 4.66733 26.5592 4.78517 26.1914C4.88066 26.081 4.9832 25.9872 5.09279 25.9101Z" fill="#8FEA1B"/>
<path opacity="0.909" fill-rule="evenodd" clip-rule="evenodd" d="M9.7412 25.9101C10.448 25.8985 11.1543 25.9101 11.8603 25.9453C12.1777 26.091 12.2803 26.3371 12.168 26.6836C12.111 26.8359 12.0085 26.9414 11.8603 27C11.1768 27.0469 10.4932 27.0469 9.80956 27C9.28969 26.6691 9.26693 26.3059 9.7412 25.9101Z" fill="#8FEA1B"/>
<path opacity="0.906" fill-rule="evenodd" clip-rule="evenodd" d="M14.458 25.9101C15.1648 25.8985 15.8712 25.9101 16.5772 25.9453C16.9236 26.155 17.0034 26.448 16.8164 26.8242C16.7547 26.9086 16.675 26.9673 16.5772 27C15.8936 27.0469 15.21 27.0469 14.5264 27C14.0046 26.6697 13.9818 26.3063 14.458 25.9101Z" fill="#8FEA1B"/>
<path opacity="0.909" fill-rule="evenodd" clip-rule="evenodd" d="M19.1748 25.9101C19.8816 25.8985 20.5879 25.9101 21.294 25.9453C21.7557 26.3309 21.733 26.6824 21.2256 27C20.542 27.0469 19.8584 27.0469 19.1748 27C18.8306 26.7881 18.7508 26.4951 18.9356 26.1211C19.0138 26.0412 19.0936 25.9709 19.1748 25.9101Z" fill="#8FEA1B"/>
<path opacity="0.914" fill-rule="evenodd" clip-rule="evenodd" d="M23.8916 25.9101C24.5756 25.8985 25.2592 25.9101 25.9424 25.9453C26.2653 26.1165 26.3679 26.3861 26.25 26.7539C26.167 26.8628 26.0645 26.9448 25.9424 27C25.2588 27.0469 24.5752 27.0469 23.8916 27C23.5687 26.8288 23.4662 26.5592 23.584 26.1914C23.6795 26.081 23.782 25.9872 23.8916 25.9101Z" fill="#8FEA1B"/>
<path opacity="0.916" fill-rule="evenodd" clip-rule="evenodd" d="M5.22949 30.1289C5.89579 30.0994 6.5566 30.1345 7.21191 30.2344C7.46566 30.411 7.54537 30.6571 7.45117 30.9726C7.41699 31.1015 7.33721 31.1836 7.21191 31.2187C6.48274 31.2656 5.75358 31.2656 5.02441 31.2187C4.7707 31.042 4.69094 30.7959 4.78515 30.4804C4.89201 30.303 5.04012 30.1858 5.22949 30.1289Z" fill="#8FEA1B"/>
<path opacity="0.914" fill-rule="evenodd" clip-rule="evenodd" d="M9.94629 30.1289C10.6126 30.0994 11.2734 30.1345 11.9287 30.2344C12.2933 30.5625 12.2933 30.8906 11.9287 31.2187C11.1995 31.2656 10.4704 31.2656 9.74122 31.2187C9.45253 31.0081 9.37283 30.7386 9.50196 30.4101C9.62446 30.2605 9.77252 30.1668 9.94629 30.1289Z" fill="#8FEA1B"/>
<path opacity="0.915" fill-rule="evenodd" clip-rule="evenodd" d="M14.6631 30.1289C15.3284 30.1014 15.9893 30.1366 16.6455 30.2344C17.0101 30.5625 17.0101 30.8906 16.6455 31.2188C15.8936 31.2657 15.1416 31.2657 14.3897 31.2188C14.1334 30.9912 14.0764 30.7217 14.2188 30.4102C14.3413 30.2605 14.4893 30.1668 14.6631 30.1289Z" fill="#8FEA1B"/>
<path opacity="0.909" fill-rule="evenodd" clip-rule="evenodd" d="M19.3116 30.1289C19.9997 30.1011 20.6833 30.1363 21.3623 30.2344C21.7269 30.5625 21.7269 30.8906 21.3623 31.2187C20.6104 31.2656 19.8584 31.2656 19.1065 31.2187C18.6973 30.7538 18.7656 30.3905 19.3116 30.1289Z" fill="#8FEA1B"/>
</g>
<path d="M54.92 10.248V27H51.56V16.104L47.072 27H44.528L40.016 16.104V27H36.656V10.248H40.472L45.8 22.704L51.128 10.248H54.92ZM60.1859 12.12C59.5939 12.12 59.0979 11.936 58.6979 11.568C58.3139 11.184 58.1219 10.712 58.1219 10.152C58.1219 9.592 58.3139 9.128 58.6979 8.76C59.0979 8.376 59.5939 8.184 60.1859 8.184C60.7779 8.184 61.2659 8.376 61.6499 8.76C62.0499 9.128 62.2499 9.592 62.2499 10.152C62.2499 10.712 62.0499 11.184 61.6499 11.568C61.2659 11.936 60.7779 12.12 60.1859 12.12ZM61.8419 13.704V27H58.4819V13.704H61.8419ZM72.7696 13.512C74.3536 13.512 75.6336 14.016 76.6096 15.024C77.5856 16.016 78.0736 17.408 78.0736 19.2V27H74.7136V19.656C74.7136 18.6 74.4496 17.792 73.9216 17.232C73.3936 16.656 72.6736 16.368 71.7616 16.368C70.8336 16.368 70.0976 16.656 69.5536 17.232C69.0256 17.792 68.7616 18.6 68.7616 19.656V27H65.4016V13.704H68.7616V15.36C69.2096 14.784 69.7776 14.336 70.4656 14.016C71.1696 13.68 71.9376 13.512 72.7696 13.512ZM88.9968 13.512C90.0048 13.512 90.9008 13.736 91.6848 14.184C92.4688 14.616 93.0768 15.264 93.5088 16.128C93.9568 16.976 94.1808 18 94.1808 19.2V27H90.8208V19.656C90.8208 18.6 90.5568 17.792 90.0288 17.232C89.5008 16.656 88.7808 16.368 87.8688 16.368C86.9408 16.368 86.2048 16.656 85.6608 17.232C85.1328 17.792 84.8688 18.6 84.8688 19.656V27H81.5088V9.24H84.8688V15.36C85.3008 14.784 85.8768 14.336 86.5968 14.016C87.3168 13.68 88.1168 13.512 88.9968 13.512ZM96.752 20.304C96.752 18.96 97.016 17.768 97.544 16.728C98.088 15.688 98.816 14.888 99.728 14.328C100.656 13.768 101.688 13.488 102.824 13.488C103.816 13.488 104.68 13.688 105.416 14.088C106.168 14.488 106.768 14.992 107.216 15.6V13.704H110.6V27H107.216V25.056C106.784 25.68 106.184 26.2 105.416 26.616C104.664 27.016 103.792 27.216 102.8 27.216C101.68 27.216 100.656 26.928 99.728 26.352C98.816 25.776 98.088 24.968 97.544 23.928C97.016 22.872 96.752 21.664 96.752 20.304ZM107.216 20.352C107.216 19.536 107.056 18.84 106.736 18.264C106.416 17.672 105.984 17.224 105.44 16.92C104.896 16.6 104.312 16.44 103.688 16.44C103.064 16.44 102.488 16.592 101.96 16.896C101.432 17.2 101 17.648 100.664 18.24C100.344 18.816 100.184 19.504 100.184 20.304C100.184 21.104 100.344 21.808 100.664 22.416C101 23.008 101.432 23.464 101.96 23.784C102.504 24.104 103.08 24.264 103.688 24.264C104.312 24.264 104.896 24.112 105.44 23.808C105.984 23.488 106.416 23.04 106.736 22.464C107.056 21.872 107.216 21.168 107.216 20.352ZM124.394 23.808H117.722L116.618 27H113.09L119.114 10.224H123.026L129.05 27H125.498L124.394 23.808ZM123.482 21.12L121.058 14.112L118.634 21.12H123.482ZM136.749 13.488C137.741 13.488 138.613 13.688 139.365 14.088C140.117 14.472 140.709 14.976 141.141 15.6V13.704H144.525V27.096C144.525 28.328 144.277 29.424 143.781 30.384C143.285 31.36 142.541 32.128 141.549 32.688C140.557 33.264 139.357 33.552 137.949 33.552C136.061 33.552 134.509 33.112 133.293 32.232C132.093 31.352 131.413 30.152 131.253 28.632H134.589C134.765 29.24 135.141 29.72 135.717 30.072C136.309 30.44 137.021 30.624 137.853 30.624C138.829 30.624 139.621 30.328 140.229 29.736C140.837 29.16 141.141 28.28 141.141 27.096V25.032C140.709 25.656 140.109 26.176 139.341 26.592C138.589 27.008 137.725 27.216 136.749 27.216C135.629 27.216 134.605 26.928 133.677 26.352C132.749 25.776 132.013 24.968 131.469 23.928C130.941 22.872 130.677 21.664 130.677 20.304C130.677 18.96 130.941 17.768 131.469 16.728C132.013 15.688 132.741 14.888 133.653 14.328C134.581 13.768 135.613 13.488 136.749 13.488ZM141.141 20.352C141.141 19.536 140.981 18.84 140.661 18.264C140.341 17.672 139.909 17.224 139.365 16.92C138.821 16.6 138.237 16.44 137.613 16.44C136.989 16.44 136.413 16.592 135.885 16.896C135.357 17.2 134.925 17.648 134.589 18.24C134.269 18.816 134.109 19.504 134.109 20.304C134.109 21.104 134.269 21.808 134.589 22.416C134.925 23.008 135.357 23.464 135.885 23.784C136.429 24.104 137.005 24.264 137.613 24.264C138.237 24.264 138.821 24.112 139.365 23.808C139.909 23.488 140.341 23.04 140.661 22.464C140.981 21.872 141.141 21.168 141.141 20.352ZM160.407 20.064C160.407 20.544 160.375 20.976 160.311 21.36H150.591C150.671 22.32 151.007 23.072 151.599 23.616C152.191 24.16 152.919 24.432 153.783 24.432C155.031 24.432 155.919 23.896 156.447 22.824H160.071C159.687 24.104 158.951 25.16 157.863 25.992C156.775 26.808 155.439 27.216 153.855 27.216C152.575 27.216 151.423 26.936 150.399 26.376C149.391 25.8 148.599 24.992 148.023 23.952C147.463 22.912 147.183 21.712 147.183 20.352C147.183 18.976 147.463 17.768 148.023 16.728C148.583 15.688 149.367 14.888 150.375 14.328C151.383 13.768 152.543 13.488 153.855 13.488C155.119 13.488 156.247 13.76 157.239 14.304C158.247 14.848 159.023 15.624 159.567 16.632C160.127 17.624 160.407 18.768 160.407 20.064ZM156.927 19.104C156.911 18.24 156.599 17.552 155.991 17.04C155.383 16.512 154.639 16.248 153.759 16.248C152.927 16.248 152.223 16.504 151.647 17.016C151.087 17.512 150.743 18.208 150.615 19.104H156.927ZM170.467 13.512C172.051 13.512 173.331 14.016 174.307 15.024C175.283 16.016 175.771 17.408 175.771 19.2V27H172.411V19.656C172.411 18.6 172.147 17.792 171.619 17.232C171.091 16.656 170.371 16.368 169.459 16.368C168.531 16.368 167.795 16.656 167.251 17.232C166.723 17.792 166.459 18.6 166.459 19.656V27H163.099V13.704H166.459V15.36C166.907 14.784 167.475 14.336 168.163 14.016C168.867 13.68 169.635 13.512 170.467 13.512ZM178.343 20.304C178.343 18.96 178.607 17.768 179.135 16.728C179.679 15.688 180.415 14.888 181.343 14.328C182.271 13.768 183.303 13.488 184.439 13.488C185.303 13.488 186.127 13.68 186.911 14.064C187.695 14.432 188.319 14.928 188.783 15.552V9.24H192.191V27H188.783V25.032C188.367 25.688 187.783 26.216 187.031 26.616C186.279 27.016 185.407 27.216 184.415 27.216C183.295 27.216 182.271 26.928 181.343 26.352C180.415 25.776 179.679 24.968 179.135 23.928C178.607 22.872 178.343 21.664 178.343 20.304ZM188.807 20.352C188.807 19.536 188.647 18.84 188.327 18.264C188.007 17.672 187.575 17.224 187.031 16.92C186.487 16.6 185.903 16.44 185.279 16.44C184.655 16.44 184.079 16.592 183.551 16.896C183.023 17.2 182.591 17.648 182.255 18.24C181.935 18.816 181.775 19.504 181.775 20.304C181.775 21.104 181.935 21.808 182.255 22.416C182.591 23.008 183.023 23.464 183.551 23.784C184.095 24.104 184.671 24.264 185.279 24.264C185.903 24.264 186.487 24.112 187.031 23.808C187.575 23.488 188.007 23.04 188.327 22.464C188.647 21.872 188.807 21.168 188.807 20.352ZM194.848 20.304C194.848 18.96 195.112 17.768 195.64 16.728C196.184 15.688 196.912 14.888 197.824 14.328C198.752 13.768 199.784 13.488 200.92 13.488C201.912 13.488 202.776 13.688 203.512 14.088C204.264 14.488 204.864 14.992 205.312 15.6V13.704H208.696V27H205.312V25.056C204.88 25.68 204.28 26.2 203.512 26.616C202.76 27.016 201.888 27.216 200.896 27.216C199.776 27.216 198.752 26.928 197.824 26.352C196.912 25.776 196.184 24.968 195.64 23.928C195.112 22.872 194.848 21.664 194.848 20.304ZM205.312 20.352C205.312 19.536 205.152 18.84 204.832 18.264C204.512 17.672 204.08 17.224 203.536 16.92C202.992 16.6 202.408 16.44 201.784 16.44C201.16 16.44 200.584 16.592 200.056 16.896C199.528 17.2 199.096 17.648 198.76 18.24C198.44 18.816 198.28 19.504 198.28 20.304C198.28 21.104 198.44 21.808 198.76 22.416C199.096 23.008 199.528 23.464 200.056 23.784C200.6 24.104 201.176 24.264 201.784 24.264C202.408 24.264 202.992 24.112 203.536 23.808C204.08 23.488 204.512 23.04 204.832 22.464C205.152 21.872 205.312 21.168 205.312 20.352Z" fill="#4BB05B"/>
<defs>
<clipPath id="clip0_23_1744">
<rect width="35" height="36" fill="white"/>
</clipPath>
</defs>
</svg>
