<svg width="217" height="47" viewBox="0 0 217 47" fill="none" xmlns="http://www.w3.org/2000/svg">
<g clip-path="url(#clip0_11_554)">
<path d="M19.6626 25.7588C19.7726 26.4664 20.1651 26.9253 20.5394 26.7835C20.9138 26.6416 21.1279 25.9524 21.0179 25.2448C20.9769 24.9611 20.8806 24.7008 20.7367 24.488L20.24 21.5007L19.0786 21.9914L19.6918 24.8843C19.6261 25.1772 19.6163 25.4776 19.6639 25.7588H19.6626Z" fill="#F8A8AB"/>
<path d="M17.045 45.4004H18.4082V42.9213H17.045V45.4004Z" fill="#F8A8AB"/>
<path d="M18.2571 46.8206C18.0241 46.8473 16.8575 46.9658 16.7989 46.6228C16.7455 46.3083 16.8243 45.9795 16.8354 45.9344C16.9473 44.5042 16.989 44.4884 17.0144 44.4792C17.0541 44.4642 17.17 44.5351 17.3581 44.6903L17.3698 44.7003L17.3724 44.7178C17.3757 44.7404 17.459 45.2652 17.8542 45.1843C18.125 45.1292 18.2129 45.0525 18.2408 45.0149C18.2181 45.0016 18.1894 44.9782 18.1692 44.9381C18.1399 44.8797 18.1347 44.8046 18.1543 44.7145C18.205 44.4767 18.3574 44.1254 18.3639 44.1112L18.3815 44.0712L19.9308 45.4113L20.8878 45.7617C20.96 45.7884 21.018 45.8543 21.0473 45.9428C21.0876 46.0663 21.0629 46.2098 20.9848 46.2999C20.811 46.5002 20.4659 46.8431 20.1033 46.8857C20.007 46.8974 19.8794 46.9016 19.7362 46.9016C19.1379 46.9016 18.2643 46.8223 18.2578 46.8206H18.2571Z" fill="#2F2E43"/>
<path d="M13.2687 45.4004H14.6318V42.9213H13.2687V45.4004Z" fill="#F8A8AB"/>
<path d="M14.4808 46.8206C14.2477 46.8473 13.0811 46.9658 13.0225 46.6228C12.9691 46.3083 13.0479 45.9795 13.059 45.9344C13.171 44.5042 13.2126 44.4884 13.238 44.4792C13.2777 44.4642 13.3936 44.5351 13.5817 44.6903L13.5935 44.7003L13.5961 44.7178C13.5993 44.7404 13.6826 45.2652 14.0778 45.1843C14.3486 45.1292 14.4365 45.0525 14.4645 45.0149C14.4417 45.0016 14.4131 44.9782 14.3929 44.9381C14.3636 44.8797 14.3584 44.8046 14.3779 44.7145C14.4287 44.4767 14.581 44.1254 14.5875 44.1112L14.6051 44.0712L16.1545 45.4113L17.1114 45.7617C17.1837 45.7884 17.2416 45.8543 17.2709 45.9428C17.3113 46.0663 17.2865 46.2098 17.2084 46.2999C17.0346 46.5002 16.6896 46.8431 16.327 46.8857C16.2306 46.8974 16.103 46.9016 15.9598 46.9016C15.3615 46.9016 14.4879 46.8223 14.4814 46.8206H14.4808Z" fill="#2F2E43"/>
<path d="M14.3733 8.36763L16.4871 9.25797V5.35785H14.5692L14.3733 8.36763Z" fill="#F8A8AB"/>
<path d="M16.2253 6.43763C17.3884 6.43763 18.3313 5.22908 18.3313 3.73825C18.3313 2.24743 17.3884 1.03888 16.2253 1.03888C15.0623 1.03888 14.1194 2.24743 14.1194 3.73825C14.1194 5.22908 15.0623 6.43763 16.2253 6.43763Z" fill="#F8A8AB"/>
<path d="M15.6891 3.94946L15.9794 4.40089L16.5048 3.22268C16.5048 3.22268 17.1753 3.2669 17.1753 2.6294C17.1753 1.9919 17.7905 1.97354 17.7905 1.97354C17.7905 1.97354 18.6609 0.0251486 16.8576 0.538322C16.8576 0.538322 15.607 -0.559785 14.9847 0.378946C14.9847 0.378946 13.0773 1.60973 13.6235 3.75337L14.5303 5.96294L14.736 5.46312C14.736 5.46312 14.6117 3.3637 15.6897 3.94863L15.6891 3.94946Z" fill="#2F2E43"/>
<path d="M0.5 46.9007C0.5 46.9558 0.534503 47 0.577468 47H35.4225C35.4655 47 35.5 46.9558 35.5 46.9007C35.5 46.8456 35.4655 46.8014 35.4225 46.8014H0.577468C0.534503 46.8014 0.5 46.8456 0.5 46.9007Z" fill="#484565"/>
<path d="M21.9047 29.1224L17.9252 27.4827C17.4344 27.2808 16.9071 27.6187 16.7397 28.2446L14.9417 34.965C14.7581 35.6509 15.0823 36.3886 15.635 36.5438L20.2089 37.8263C20.7115 37.9673 21.2101 37.5676 21.3312 36.9268L22.5349 30.5634C22.6514 29.946 22.3767 29.3168 21.9047 29.1224Z" fill="#E2E3E4"/>
<path d="M21.5009 30.5401L21.2444 30.4817C21.4085 29.2868 21.635 26.1009 20.7204 25.7104C20.2771 25.521 19.8305 25.8523 19.3937 26.6959C19.0506 27.3592 18.8501 28.0935 18.8481 28.101L18.6021 27.9917C18.6372 27.8624 19.4737 24.8259 20.8024 25.3933C22.1155 25.9541 21.5263 30.3523 21.5003 30.5392L21.5009 30.5401Z" fill="#2F2E43"/>
<path d="M18.4838 21.2103H11.3704L13.1111 44.2147L15.1292 44.0478L15.2288 27.4811L16.4989 34.7514L16.8706 43.9226L18.7097 44.0478L18.9232 33.6149L18.4838 21.2103Z" fill="#2F2E43"/>
<path d="M14.2582 6.94159L16.6668 7.69257L18.7259 19.0984L18.4838 21.2103L12.4523 22.5187L11.3704 21.2103L14.2582 6.94159Z" fill="#3774E9"/>
<path d="M14.2542 6.37085L13.4307 7.5549L11.7602 8.06891L8.91211 24.3002L14.4 25.4918L15.9285 8.96091L14.2542 6.37085Z" fill="#2F2E43"/>
<path d="M16.6655 6.96246L16.2358 8.92504L18.2246 26.5248H19.2506L18.7773 9.3022L17.3842 7.88367L16.6655 6.96246Z" fill="#2F2E43"/>
<path d="M17.9511 9.08439L18.7772 9.30218C18.7772 9.30218 19.1392 9.4724 19.2707 10.7908C19.4015 12.1092 19.4249 16.5367 19.4249 16.5367L20.8298 23.6794L19.2342 24.3536L18.483 20.5102L17.9504 9.08356L17.9511 9.08439Z" fill="#2F2E43"/>
<path d="M16.5731 8.16819L16.1734 9.10775L16.9728 20.1289L16.04 21.2395L15.1735 20.2148L15.8069 9.15031L14.8838 8.16819L15.2067 7.86863L15.54 8.38097L16.2066 8.21074L16.4729 7.69757L16.5731 8.16819Z" fill="#2F2E43"/>
<path d="M12.6468 22.9894C12.9821 23.5693 13.4899 23.7687 13.7809 23.4358C14.0719 23.1028 14.0361 22.3627 13.7008 21.7819C13.5693 21.5475 13.3955 21.3656 13.1937 21.2521L11.7485 18.8231L10.8618 19.9028L12.3806 22.1825C12.419 22.4837 12.5101 22.7599 12.6468 22.9885V22.9894Z" fill="#F8A8AB"/>
<path d="M12.4204 8.33509L11.7603 8.06891C11.7603 8.06891 10.8658 8.35345 10.5696 9.78533L9.12378 16.7611L11.5761 22.2784L12.8865 20.239L11.6522 15.1741L12.4211 8.33509H12.4204Z" fill="#2F2E43"/>
</g>
<path d="M31.52 35C31.2853 35 31.104 34.936 30.976 34.808C30.848 34.6587 30.784 34.4773 30.784 34.264V13.368C30.784 13.1333 30.848 12.952 30.976 12.824C31.104 12.6747 31.2853 12.6 31.52 12.6H39.328C41.7387 12.6 43.648 13.1653 45.056 14.296C46.464 15.4267 47.168 17.1013 47.168 19.32C47.168 20.9627 46.752 22.3067 45.92 23.352C45.1093 24.376 44 25.0907 42.592 25.496L47.52 34.008C47.584 34.136 47.616 34.2533 47.616 34.36C47.616 34.5307 47.5413 34.68 47.392 34.808C47.264 34.936 47.1147 35 46.944 35H45.408C45.0453 35 44.7787 34.904 44.608 34.712C44.4373 34.52 44.288 34.328 44.16 34.136L39.52 26.008H33.92V34.264C33.92 34.4773 33.8453 34.6587 33.696 34.808C33.568 34.936 33.3867 35 33.152 35H31.52ZM33.92 23.288H39.2C40.8 23.288 41.9947 22.9573 42.784 22.296C43.5733 21.6133 43.968 20.6107 43.968 19.288C43.968 17.9867 43.5733 16.9947 42.784 16.312C42.016 15.6293 40.8213 15.288 39.2 15.288H33.92V23.288ZM57.9653 35.32C56.3439 35.32 54.9893 35.0107 53.9013 34.392C52.8133 33.7733 51.9813 32.92 51.4053 31.832C50.8293 30.7227 50.5093 29.464 50.4453 28.056C50.4239 27.6933 50.4133 27.2347 50.4133 26.68C50.4133 26.104 50.4239 25.6453 50.4453 25.304C50.5093 23.8747 50.8293 22.616 51.4053 21.528C52.0026 20.44 52.8453 19.5867 53.9333 18.968C55.0213 18.3493 56.3653 18.04 57.9653 18.04C59.5653 18.04 60.9093 18.3493 61.9973 18.968C63.0853 19.5867 63.9173 20.44 64.4933 21.528C65.0906 22.616 65.4213 23.8747 65.4853 25.304C65.5066 25.6453 65.5173 26.104 65.5173 26.68C65.5173 27.2347 65.5066 27.6933 65.4853 28.056C65.4213 29.464 65.1013 30.7227 64.5253 31.832C63.9493 32.92 63.1173 33.7733 62.0293 34.392C60.9413 35.0107 59.5866 35.32 57.9653 35.32ZM57.9653 32.856C59.2879 32.856 60.3439 32.44 61.1333 31.608C61.9226 30.7547 62.3493 29.5173 62.4133 27.896C62.4346 27.576 62.4453 27.1707 62.4453 26.68C62.4453 26.1893 62.4346 25.784 62.4133 25.464C62.3493 23.8427 61.9226 22.616 61.1333 21.784C60.3439 20.9307 59.2879 20.504 57.9653 20.504C56.6426 20.504 55.5759 20.9307 54.7653 21.784C53.9759 22.616 53.5599 23.8427 53.5173 25.464C53.4959 25.784 53.4852 26.1893 53.4852 26.68C53.4852 27.1707 53.4959 27.576 53.5173 27.896C53.5599 29.5173 53.9759 30.7547 54.7653 31.608C55.5759 32.44 56.6426 32.856 57.9653 32.856ZM76.2443 35.32C74.7296 35.32 73.4176 35.032 72.3083 34.456C71.2203 33.8587 70.3776 33.016 69.7803 31.928C69.1829 30.8187 68.8629 29.496 68.8203 27.96C68.7989 27.64 68.7883 27.2133 68.7883 26.68C68.7883 26.1467 68.7989 25.72 68.8203 25.4C68.8629 23.864 69.1829 22.552 69.7803 21.464C70.3776 20.3547 71.2203 19.512 72.3083 18.936C73.4176 18.3387 74.7296 18.04 76.2443 18.04C77.4816 18.04 78.5376 18.2107 79.4123 18.552C80.3083 18.8933 81.0443 19.3307 81.6203 19.864C82.1963 20.3973 82.6229 20.9733 82.9003 21.592C83.1989 22.2107 83.3589 22.7973 83.3803 23.352C83.4016 23.5653 83.3376 23.736 83.1883 23.864C83.0389 23.992 82.8576 24.056 82.6443 24.056H81.1083C80.8949 24.056 80.7349 24.0133 80.6283 23.928C80.5216 23.8213 80.4149 23.6507 80.3083 23.416C79.9243 22.3707 79.4016 21.6347 78.7403 21.208C78.0789 20.7813 77.2576 20.568 76.2763 20.568C74.9963 20.568 73.9509 20.9627 73.1403 21.752C72.3509 22.5413 71.9243 23.8107 71.8602 25.56C71.8389 26.328 71.8389 27.0747 71.8602 27.8C71.9243 29.5707 72.3509 30.8507 73.1403 31.64C73.9509 32.408 74.9963 32.792 76.2763 32.792C77.2576 32.792 78.0789 32.5787 78.7403 32.152C79.4016 31.7253 79.9243 30.9893 80.3083 29.944C80.4149 29.7093 80.5216 29.5493 80.6283 29.464C80.7349 29.3573 80.8949 29.304 81.1083 29.304H82.6443C82.8576 29.304 83.0389 29.368 83.1883 29.496C83.3376 29.624 83.4016 29.7947 83.3803 30.008C83.3589 30.456 83.2629 30.9147 83.0923 31.384C82.9216 31.8533 82.6443 32.3333 82.2603 32.824C81.8976 33.2933 81.4389 33.72 80.8843 34.104C80.3296 34.4667 79.6576 34.7653 78.8683 35C78.1003 35.2133 77.2256 35.32 76.2443 35.32ZM87.9485 35C87.7352 35 87.5538 34.936 87.4045 34.808C87.2765 34.6587 87.2125 34.4773 87.2125 34.264V13.016C87.2125 12.8027 87.2765 12.632 87.4045 12.504C87.5538 12.3547 87.7352 12.28 87.9485 12.28H89.5485C89.7832 12.28 89.9645 12.3547 90.0925 12.504C90.2205 12.632 90.2845 12.8027 90.2845 13.016V20.472C90.8605 19.7467 91.5645 19.16 92.3965 18.712C93.2285 18.264 94.2845 18.04 95.5645 18.04C96.9512 18.04 98.1245 18.3493 99.0845 18.968C100.066 19.5653 100.802 20.408 101.293 21.496C101.805 22.5627 102.061 23.8107 102.061 25.24V34.264C102.061 34.4773 101.997 34.6587 101.869 34.808C101.741 34.936 101.559 35 101.325 35H99.7245C99.5112 35 99.3298 34.936 99.1805 34.808C99.0525 34.6587 98.9885 34.4773 98.9885 34.264V25.4C98.9885 23.9067 98.6258 22.744 97.9005 21.912C97.1752 21.0587 96.1085 20.632 94.7005 20.632C93.3778 20.632 92.3112 21.0587 91.5005 21.912C90.6898 22.744 90.2845 23.9067 90.2845 25.4V34.264C90.2845 34.4773 90.2205 34.6587 90.0925 34.808C89.9645 34.936 89.7832 35 89.5485 35H87.9485ZM111.321 35.32C110.254 35.32 109.283 35.1067 108.409 34.68C107.534 34.2533 106.83 33.6773 106.297 32.952C105.763 32.2267 105.497 31.4053 105.497 30.488C105.497 29.016 106.094 27.8427 107.289 26.968C108.483 26.0933 110.041 25.5173 111.961 25.24L116.729 24.568V23.64C116.729 22.616 116.43 21.816 115.833 21.24C115.257 20.664 114.307 20.376 112.985 20.376C112.025 20.376 111.246 20.568 110.649 20.952C110.073 21.336 109.667 21.8267 109.433 22.424C109.305 22.744 109.081 22.904 108.761 22.904H107.321C107.086 22.904 106.905 22.84 106.777 22.712C106.67 22.5627 106.617 22.392 106.617 22.2C106.617 21.88 106.734 21.4853 106.969 21.016C107.225 20.5467 107.609 20.088 108.121 19.64C108.633 19.192 109.283 18.8187 110.073 18.52C110.883 18.2 111.865 18.04 113.017 18.04C114.297 18.04 115.374 18.2107 116.249 18.552C117.123 18.872 117.806 19.3093 118.297 19.864C118.809 20.4187 119.171 21.048 119.385 21.752C119.619 22.456 119.737 23.1707 119.737 23.896V34.264C119.737 34.4773 119.662 34.6587 119.513 34.808C119.385 34.936 119.214 35 119.001 35H117.529C117.294 35 117.113 34.936 116.985 34.808C116.857 34.6587 116.793 34.4773 116.793 34.264V32.888C116.515 33.272 116.142 33.656 115.673 34.04C115.203 34.4027 114.617 34.712 113.913 34.968C113.209 35.2027 112.345 35.32 111.321 35.32ZM111.993 32.92C112.867 32.92 113.667 32.7387 114.393 32.376C115.118 31.992 115.683 31.4053 116.089 30.616C116.515 29.8267 116.729 28.8347 116.729 27.64V26.744L113.017 27.288C111.502 27.5013 110.361 27.864 109.593 28.376C108.825 28.8667 108.441 29.496 108.441 30.264C108.441 30.8613 108.611 31.3627 108.953 31.768C109.315 32.152 109.763 32.44 110.297 32.632C110.851 32.824 111.417 32.92 111.993 32.92Z" fill="#151515"/>
<path d="M125.137 35C124.902 35 124.71 34.9253 124.561 34.776C124.411 34.6267 124.337 34.4347 124.337 34.2V13.4C124.337 13.1653 124.411 12.9733 124.561 12.824C124.71 12.6747 124.902 12.6 125.137 12.6H139.409C139.643 12.6 139.835 12.6747 139.985 12.824C140.134 12.9733 140.209 13.1653 140.209 13.4V16.12C140.209 16.3547 140.134 16.5467 139.985 16.696C139.835 16.8453 139.643 16.92 139.409 16.92H129.329V22.328H138.769C139.003 22.328 139.195 22.4027 139.345 22.552C139.494 22.7013 139.569 22.8933 139.569 23.128V25.848C139.569 26.0613 139.494 26.2427 139.345 26.392C139.195 26.5413 139.003 26.616 138.769 26.616H129.329V34.2C129.329 34.4347 129.254 34.6267 129.105 34.776C128.955 34.9253 128.763 35 128.529 35H125.137ZM149.565 35C149.33 35 149.138 34.9253 148.989 34.776C148.839 34.6267 148.765 34.4347 148.765 34.2V17.048H142.941C142.727 17.048 142.546 16.9733 142.397 16.824C142.247 16.6747 142.173 16.4933 142.173 16.28V13.4C142.173 13.1653 142.247 12.9733 142.397 12.824C142.546 12.6747 142.727 12.6 142.941 12.6H159.709C159.943 12.6 160.135 12.6747 160.285 12.824C160.434 12.9733 160.509 13.1653 160.509 13.4V16.28C160.509 16.4933 160.434 16.6747 160.285 16.824C160.135 16.9733 159.943 17.048 159.709 17.048H153.917V34.2C153.917 34.4347 153.842 34.6267 153.693 34.776C153.543 34.9253 153.351 35 153.117 35H149.565ZM167.784 35.32C165.33 35.32 163.378 34.6373 161.928 33.272C160.498 31.9067 159.741 29.9227 159.656 27.32C159.656 27.1493 159.656 26.9253 159.656 26.648C159.656 26.3493 159.656 26.1147 159.656 25.944C159.741 24.3013 160.114 22.8933 160.776 21.72C161.437 20.5253 162.365 19.6187 163.56 19C164.754 18.36 166.152 18.04 167.752 18.04C169.544 18.04 171.037 18.4133 172.232 19.16C173.448 19.8853 174.354 20.888 174.952 22.168C175.57 23.4267 175.88 24.8773 175.88 26.52V27.256C175.88 27.4693 175.794 27.6507 175.624 27.8C175.474 27.9493 175.293 28.024 175.08 28.024H164.616C164.616 28.0453 164.616 28.088 164.616 28.152C164.616 28.1947 164.616 28.2373 164.616 28.28C164.637 28.9627 164.765 29.592 165 30.168C165.256 30.7227 165.608 31.1707 166.056 31.512C166.525 31.8533 167.08 32.024 167.72 32.024C168.253 32.024 168.69 31.9493 169.032 31.8C169.373 31.6507 169.65 31.4693 169.864 31.256C170.098 31.0427 170.269 30.8613 170.376 30.712C170.568 30.4987 170.717 30.3707 170.824 30.328C170.952 30.264 171.144 30.232 171.4 30.232H174.728C174.941 30.232 175.112 30.296 175.24 30.424C175.389 30.5307 175.453 30.6907 175.432 30.904C175.41 31.2453 175.229 31.672 174.888 32.184C174.568 32.6747 174.088 33.1653 173.448 33.656C172.808 34.1253 172.008 34.52 171.048 34.84C170.109 35.16 169.021 35.32 167.784 35.32ZM164.616 25.112H170.888V25.048C170.888 24.28 170.76 23.6187 170.504 23.064C170.269 22.488 169.917 22.04 169.448 21.72C168.978 21.4 168.413 21.24 167.752 21.24C167.09 21.24 166.525 21.4 166.056 21.72C165.586 22.04 165.224 22.488 164.968 23.064C164.733 23.6187 164.616 24.28 164.616 25.048V25.112ZM186.47 35.32C184.913 35.32 183.537 35.032 182.343 34.456C181.169 33.88 180.241 33.048 179.559 31.96C178.876 30.8507 178.503 29.528 178.439 27.992C178.417 27.6507 178.407 27.224 178.407 26.712C178.407 26.1787 178.417 25.7413 178.439 25.4C178.503 23.8427 178.865 22.52 179.527 21.432C180.209 20.3227 181.148 19.48 182.343 18.904C183.537 18.328 184.913 18.04 186.47 18.04C187.9 18.04 189.116 18.2427 190.119 18.648C191.121 19.032 191.943 19.5227 192.583 20.12C193.223 20.7173 193.692 21.3467 193.991 22.008C194.311 22.648 194.481 23.2133 194.503 23.704C194.524 23.9173 194.449 24.1093 194.279 24.28C194.129 24.4293 193.948 24.504 193.735 24.504H190.311C190.097 24.504 189.927 24.4507 189.799 24.344C189.692 24.216 189.585 24.0453 189.479 23.832C189.18 23.0853 188.796 22.552 188.327 22.232C187.857 21.912 187.271 21.752 186.567 21.752C185.607 21.752 184.849 22.0613 184.295 22.68C183.74 23.2987 183.441 24.2587 183.399 25.56C183.377 26.392 183.377 27.1493 183.399 27.832C183.463 29.1547 183.761 30.1147 184.295 30.712C184.849 31.3093 185.607 31.608 186.567 31.608C187.313 31.608 187.911 31.448 188.359 31.128C188.807 30.808 189.18 30.2747 189.479 29.528C189.564 29.3147 189.671 29.1547 189.799 29.048C189.927 28.92 190.097 28.856 190.311 28.856H193.735C193.948 28.856 194.129 28.9413 194.279 29.112C194.449 29.2613 194.524 29.4427 194.503 29.656C194.481 30.0187 194.375 30.4453 194.183 30.936C194.012 31.4267 193.724 31.928 193.319 32.44C192.935 32.952 192.433 33.432 191.815 33.88C191.196 34.3067 190.439 34.6587 189.543 34.936C188.668 35.192 187.644 35.32 186.47 35.32ZM198.441 35C198.206 35 198.014 34.9253 197.865 34.776C197.716 34.6267 197.641 34.4347 197.641 34.2V13.08C197.641 12.8453 197.716 12.6533 197.865 12.504C198.014 12.3547 198.206 12.28 198.441 12.28H201.897C202.11 12.28 202.292 12.3547 202.441 12.504C202.59 12.6533 202.665 12.8453 202.665 13.08V20.28C203.241 19.5973 203.945 19.0533 204.777 18.648C205.609 18.2427 206.612 18.04 207.785 18.04C209.044 18.04 210.153 18.328 211.113 18.904C212.094 19.4587 212.862 20.28 213.417 21.368C213.972 22.4347 214.249 23.736 214.249 25.272V34.2C214.249 34.4347 214.174 34.6267 214.025 34.776C213.876 34.9253 213.684 35 213.449 35H209.961C209.748 35 209.566 34.9253 209.417 34.776C209.268 34.6267 209.193 34.4347 209.193 34.2V25.464C209.193 24.3333 208.916 23.4587 208.361 22.84C207.806 22.2 207.017 21.88 205.993 21.88C204.99 21.88 204.18 22.2 203.561 22.84C202.964 23.4587 202.665 24.3333 202.665 25.464V34.2C202.665 34.4347 202.59 34.6267 202.441 34.776C202.292 34.9253 202.11 35 201.897 35H198.441Z" fill="#101010"/>
<defs>
<clipPath id="clip0_11_554">
<rect width="35" height="47" fill="white" transform="translate(0.5)"/>
</clipPath>
</defs>
</svg>
